<svg width="16" height="17" viewBox="0 0 16 17" fill="none" xmlns="http://www.w3.org/2000/svg">
<path d="M7.99932 5.41797C7.18175 5.41797 6.39766 5.74275 5.81955 6.32086C5.24144 6.89897 4.91666 7.68306 4.91666 8.50064C4.91666 9.31821 5.24144 10.1023 5.81955 10.6804C6.39766 11.2585 7.18175 11.5833 7.99932 11.5833C8.8169 11.5833 9.60099 11.2585 10.1791 10.6804C10.7572 10.1023 11.082 9.31821 11.082 8.50064C11.082 7.68306 10.7572 6.89897 10.1791 6.32086C9.60099 5.74275 8.8169 5.41797 7.99932 5.41797ZM7.99932 10.5026C7.46818 10.5026 6.9588 10.2916 6.58322 9.91607C6.20765 9.54049 5.99666 9.03111 5.99666 8.49997C5.99666 7.96883 6.20765 7.45944 6.58322 7.08387C6.9588 6.7083 7.46818 6.4973 7.99932 6.4973C8.53046 6.4973 9.03985 6.7083 9.41542 7.08387C9.791 7.45944 10.002 7.96883 10.002 8.49997C10.002 9.03111 9.791 9.54049 9.41542 9.91607C9.03985 10.2916 8.53046 10.5026 7.99932 10.5026Z" fill="#EEF0F2"/>
<path d="M11.204 6.02327C11.6009 6.02327 11.9227 5.70151 11.9227 5.3046C11.9227 4.9077 11.6009 4.58594 11.204 4.58594C10.8071 4.58594 10.4853 4.9077 10.4853 5.3046C10.4853 5.70151 10.8071 6.02327 11.204 6.02327Z" fill="#EEF0F2"/>
<path d="M13.6887 4.57408C13.5343 4.17554 13.2985 3.81361 12.9962 3.51146C12.694 3.20931 12.3319 2.9736 11.9333 2.81942C11.4669 2.64432 10.9741 2.54965 10.476 2.53942C9.83401 2.51142 9.63068 2.50342 8.00268 2.50342C6.37468 2.50342 6.16601 2.50342 5.52934 2.53942C5.0316 2.54912 4.53918 2.64382 4.07334 2.81942C3.67463 2.97342 3.31252 3.20906 3.01023 3.51124C2.70795 3.81341 2.47216 4.17543 2.31801 4.57408C2.14288 5.04049 2.04842 5.53331 2.03868 6.03142C2.01001 6.67275 2.00134 6.87608 2.00134 8.50475C2.00134 10.1328 2.00134 10.3401 2.03868 10.9781C2.04868 11.4768 2.14268 11.9688 2.31801 12.4361C2.47259 12.8346 2.70861 13.1965 3.01097 13.4986C3.31333 13.8007 3.67539 14.0365 4.07401 14.1908C4.53897 14.3729 5.03159 14.4743 5.53068 14.4908C6.17268 14.5188 6.37601 14.5274 8.00401 14.5274C9.63201 14.5274 9.84068 14.5274 10.4773 14.4908C10.9754 14.4806 11.4682 14.3862 11.9347 14.2114C12.3332 14.0569 12.6951 13.821 12.9973 13.5187C13.2996 13.2165 13.5355 12.8546 13.69 12.4561C13.8653 11.9894 13.9593 11.4974 13.9693 10.9988C13.998 10.3574 14.0067 10.1541 14.0067 8.52542C14.0067 6.89675 14.0067 6.69008 13.9693 6.05208C13.9616 5.54693 13.8666 5.04692 13.6887 4.57408ZM12.8767 10.9288C12.8724 11.313 12.8022 11.6936 12.6693 12.0541C12.5692 12.3133 12.416 12.5488 12.2194 12.7452C12.0228 12.9417 11.7873 13.0948 11.528 13.1948C11.1715 13.327 10.7949 13.3972 10.4147 13.4021C9.78134 13.4314 9.60268 13.4388 7.97868 13.4388C6.35334 13.4388 6.18734 13.4388 5.54201 13.4021C5.16196 13.3974 4.78556 13.3273 4.42934 13.1948C4.16913 13.0954 3.93268 12.9425 3.73527 12.7461C3.53786 12.5496 3.3839 12.3138 3.28334 12.0541C3.15231 11.6975 3.08222 11.3213 3.07601 10.9414C3.04734 10.3081 3.04068 10.1294 3.04068 8.50542C3.04068 6.88075 3.04068 6.71475 3.07601 6.06875C3.08032 5.68477 3.15045 5.30436 3.28334 4.94408C3.48668 4.41808 3.90334 4.00408 4.42934 3.80275C4.78574 3.67084 5.16203 3.60073 5.54201 3.59542C6.17601 3.56675 6.35401 3.55875 7.97868 3.55875C9.60334 3.55875 9.77001 3.55875 10.4147 3.59542C10.7949 3.59999 11.1716 3.67013 11.528 3.80275C11.7873 3.90293 12.0228 4.05622 12.2193 4.25277C12.4159 4.44932 12.5692 4.6848 12.6693 4.94408C12.8004 5.30072 12.8705 5.67686 12.8767 6.05675C12.9053 6.69075 12.9127 6.86875 12.9127 8.49342C12.9127 10.1174 12.9127 10.2921 12.884 10.9294H12.8767V10.9288Z" fill="#EEF0F2"/>
</svg>
