<svg viewBox="0 0 247 78" fill="none" xmlns="http://www.w3.org/2000/svg">
<path d="M13.5 62.1H0V17.01H12.51V30.69H13.23C14.31 23.13 18.81 16.11 30.15 16.11C40.59 16.11 45.9 22.5 46.89 30.87H47.7C48.78 23.22 53.37 16.11 64.98 16.11C76.59 16.11 82.26 23.76 82.26 34.02V62.1H68.76V38.52C68.76 31.05 66.15 28.26 58.41 28.26C50.22 28.26 47.88 31.5 47.88 39.33V62.1H34.38V38.52C34.38 31.05 31.77 28.26 24.03 28.26C15.84 28.26 13.5 31.5 13.5 39.33V62.1Z" fill="currentColor"/>
<path d="M97.7611 77.4H90.3811V65.16H101.451C104.781 65.16 106.221 64.26 107.121 62.28L85.0711 17.01H100.371L109.911 37.62L113.691 48.24H114.591L118.191 37.53L126.741 17.01H141.771L119.451 65.34C115.131 74.79 109.101 77.4 97.7611 77.4Z" fill="currentColor"/>
<path d="M175.08 11.7H158.97L147.09 0H162.12L166.62 5.22H167.52L172.02 0H187.05L175.08 11.7ZM191.01 62.1H143.13V50.58L162.48 35.19L171.93 29.25V28.35L162.48 28.89H144.48V17.01H189.66V28.62L168.78 44.73L160.23 50.04V50.94L168.78 50.31H191.01V62.1Z" fill="currentColor"/>
<path d="M220.378 63C204.988 63 194.638 53.82 194.638 39.6C194.638 25.2 204.988 16.11 220.378 16.11C235.768 16.11 246.118 25.2 246.118 39.6C246.118 53.82 235.768 63 220.378 63ZM220.378 51.03C229.468 51.03 232.708 47.52 232.708 39.6C232.708 31.68 229.468 27.99 220.378 27.99C211.198 27.99 208.048 31.68 208.048 39.6C208.048 47.52 211.198 51.03 220.378 51.03Z" fill="currentColor"/>
</svg>
